<?xml version="1.0" encoding="UTF-8" standalone="no"?>
<!-- Created with Inkscape (http://www.inkscape.org/) -->

<svg
   xmlns:dc="http://purl.org/dc/elements/1.1/"
   xmlns:cc="http://creativecommons.org/ns#"
   xmlns:rdf="http://www.w3.org/1999/02/22-rdf-syntax-ns#"
   xmlns:svg="http://www.w3.org/2000/svg"
   xmlns="http://www.w3.org/2000/svg"
   xmlns:sodipodi="http://sodipodi.sourceforge.net/DTD/sodipodi-0.dtd"
   xmlns:inkscape="http://www.inkscape.org/namespaces/inkscape"
   width="14"
   height="13"
   viewBox="0 0 3.7041666 3.4395834"
   version="1.1"
   id="svg3771"
   inkscape:version="0.92.3 (2405546, 2018-03-11)"
   sodipodi:docname="sign-in.svg">
  <defs
     id="defs3765" />
  <sodipodi:namedview
     id="base"
     pagecolor="#ffffff"
     bordercolor="#666666"
     borderopacity="1.0"
     inkscape:pageopacity="0.0"
     inkscape:pageshadow="2"
     inkscape:zoom="22.4"
     inkscape:cx="21.02485"
     inkscape:cy="14.64124"
     inkscape:document-units="mm"
     inkscape:current-layer="layer1"
     showgrid="false"
     units="px"
     inkscape:window-width="1440"
     inkscape:window-height="847"
     inkscape:window-x="-8"
     inkscape:window-y="-8"
     inkscape:window-maximized="1" />
  <metadata
     id="metadata3768">
    <rdf:RDF>
      <cc:Work
         rdf:about="">
        <dc:format>image/svg+xml</dc:format>
        <dc:type
           rdf:resource="http://purl.org/dc/dcmitype/StillImage" />
        <dc:title></dc:title>
      </cc:Work>
    </rdf:RDF>
  </metadata>
  <g
     inkscape:label="Layer 1"
     inkscape:groupmode="layer"
     id="layer1"
     transform="translate(0,-293.5604)">
    <path
       style="stroke-width:0.21290539"
       inkscape:connector-curvature="0"
       class="st0"
       d="m 1.1412125,295.43632 c 0,-0.38323 0.3193581,-0.70259 0.7025878,-0.70259 0.3832297,0 0.7025878,0.31936 0.7025878,0.70259 0,0.38323 -0.3193581,0.70258 -0.7025878,0.70258 -0.3832297,0 -0.7025878,-0.31935 -0.7025878,-0.70258 m 1.4264662,0.95807 0.276777,0.59614 c 0.5109729,-0.31936 0.8516216,-0.89421 0.8516216,-1.55421 0,-1.02195 -0.8303311,-1.85228 -1.852277,-1.85228 -1.02194578,0 -1.83098626,0.83033 -1.83098626,1.85228 0,0.66 0.34064861,1.23485 0.85162155,1.55421 l 0.27677691,-0.59614 z"
       id="path4" />
  </g>
</svg>
